<svg width="24" height="23" viewBox="0 0 24 23" fill="none" xmlns="http://www.w3.org/2000/svg">
<g clip-path="url(#clip0_91_988)">
<path d="M23.9788 6.762C23.9242 5.53992 23.7238 4.69975 23.4367 3.97174C23.1406 3.19897 22.685 2.5071 22.0881 1.93196C21.5049 1.34786 20.7987 0.893989 20.0242 0.606503C19.2817 0.323405 18.4343 0.12578 17.1951 0.0718982C15.9466 0.0134533 15.5503 -6.10352e-05 12.3839 -6.10352e-05C9.21755 -6.10352e-05 8.82122 0.0134533 7.57741 0.0673349C6.33822 0.121217 5.4863 0.319017 4.74827 0.601939C3.9645 0.893989 3.26296 1.3433 2.67976 1.93196C2.08749 2.5071 1.62744 3.20353 1.33576 3.96735C1.0487 4.69976 0.848305 5.53536 0.793669 6.75744C0.734407 7.98864 0.720703 8.37951 0.720703 11.5022C0.720703 14.6249 0.734407 15.0157 0.789042 16.2424C0.843678 17.4644 1.04425 18.3046 1.33131 19.0326C1.62744 19.8054 2.08749 20.4973 2.67976 21.0724C3.26296 21.6565 3.96913 22.1104 4.74364 22.3979C5.4863 22.681 6.3336 22.8786 7.57296 22.9325C8.81659 22.9865 9.2131 22.9999 12.3795 22.9999C15.5459 22.9999 15.9422 22.9865 17.186 22.9325C18.4252 22.8786 19.2771 22.681 20.0151 22.3979C21.5825 21.8003 22.8217 20.5782 23.4277 19.0326C23.7145 18.3002 23.9151 17.4644 23.9697 16.2424C24.0244 15.0157 24.0381 14.6249 24.0381 11.5022C24.0381 8.37951 24.0335 7.98864 23.9788 6.762ZM21.8786 16.1525C21.8285 17.2758 21.6371 17.8823 21.4777 18.2867C21.0858 19.2887 20.2794 20.0839 19.2634 20.4704C18.8534 20.6277 18.2339 20.8163 17.0993 20.8657C15.8692 20.9197 15.5003 20.9331 12.3886 20.9331C9.27681 20.9331 8.90326 20.9197 7.6776 20.8657C6.53861 20.8163 5.92356 20.6277 5.51353 20.4704C5.00792 20.2861 4.5477 19.9941 4.17415 19.6122C3.78689 19.2392 3.49076 18.7899 3.30389 18.2913C3.14443 17.8869 2.95312 17.2758 2.90311 16.1571C2.8483 14.9439 2.83477 14.5799 2.83477 11.5111C2.83477 8.44234 2.8483 8.07394 2.90311 6.86538C2.95312 5.74211 3.14443 5.13555 3.30389 4.73117C3.49076 4.23237 3.78689 3.77868 4.17878 3.4101C4.55678 3.02819 5.01237 2.73615 5.51815 2.55203C5.92819 2.39478 6.54787 2.2061 7.68223 2.15661C8.91234 2.10273 9.28144 2.08921 12.393 2.08921C15.5094 2.08921 15.8783 2.10273 17.104 2.15661C18.243 2.2061 18.858 2.39478 19.268 2.55203C19.7736 2.73615 20.2339 3.02819 20.6074 3.4101C20.9947 3.78306 21.2908 4.23237 21.4777 4.73117C21.6371 5.13555 21.8285 5.7465 21.8786 6.86538C21.9333 8.0785 21.947 8.44234 21.947 11.5111C21.947 14.5799 21.9333 14.9394 21.8786 16.1525Z" fill="#402F2C"/>
<path d="M12.3827 5.59375C9.07516 5.59375 6.3916 8.24009 6.3916 11.5021C6.3916 14.7642 9.07516 17.4105 12.3827 17.4105C15.6904 17.4105 18.3737 14.7642 18.3737 11.5021C18.3737 8.24009 15.6904 5.59375 12.3827 5.59375ZM12.3827 15.3347C10.2369 15.3347 8.49641 13.6184 8.49641 11.5021C8.49641 9.38583 10.2369 7.66951 12.3827 7.66951C14.5286 7.66951 16.2689 9.38583 16.2689 11.5021C16.2689 13.6184 14.5286 15.3347 12.3827 15.3347Z" fill="#402F2C"/>
<path d="M20.0107 5.36096C20.0107 6.12305 19.3842 6.74097 18.6112 6.74097C17.8385 6.74097 17.2119 6.12305 17.2119 5.36096C17.2119 4.5987 17.8385 3.98096 18.6112 3.98096C19.3842 3.98096 20.0107 4.5987 20.0107 5.36096Z" fill="#402F2C"/>
</g>
<defs>
<clipPath id="clip0_91_988">
<rect width="23.3219" height="23" fill="white" transform="translate(0.678711)"/>
</clipPath>
</defs>
</svg>
