<svg width="24" height="23" viewBox="0 0 24 23" fill="none" xmlns="http://www.w3.org/2000/svg">
<g clip-path="url(#clip0_91_983)">
<path d="M23.661 4.36783C22.7937 4.74302 21.8696 4.99171 20.9061 5.11246C21.8973 4.52883 22.6538 3.61171 23.0095 2.50627C22.0853 3.04964 21.065 3.43346 19.9776 3.64764C19.1001 2.72621 17.8495 2.15552 16.4852 2.15552C13.8381 2.15552 11.7071 4.27439 11.7071 6.87196C11.7071 7.24571 11.7392 7.60508 11.8179 7.94721C7.84294 7.75602 4.3257 5.87721 1.9629 3.01514C1.55039 3.72096 1.30843 4.52883 1.30843 5.39852C1.30843 7.03152 2.16114 8.47908 3.43218 9.31714C2.66401 9.30277 1.91043 9.08283 1.27199 8.73639C1.27199 8.75077 1.27199 8.76946 1.27199 8.78814C1.27199 11.0795 2.9293 12.9828 5.10261 13.4212C4.71343 13.5261 4.28926 13.5765 3.84906 13.5765C3.54296 13.5765 3.23394 13.5592 2.94388 13.496C3.56337 15.3633 5.32126 16.7361 7.41148 16.7806C5.78478 18.0356 3.71933 18.7917 1.48334 18.7917C1.09124 18.7917 0.715177 18.7745 0.339111 18.727C2.45703 20.074 4.96705 20.843 7.67385 20.843C16.472 20.843 21.2822 13.6555 21.2822 7.42539C21.2822 7.21696 21.2749 7.01571 21.2647 6.81589C22.2136 6.15177 23.0109 5.32233 23.661 4.36783Z" fill="#402F2C"/>
</g>
<defs>
<clipPath id="clip0_91_983">
<rect width="23.3219" height="23" fill="white" transform="translate(0.339111 -0.000183105)"/>
</clipPath>
</defs>
</svg>
